<svg width="24" height="24" viewBox="0 0 24 24" fill="none" xmlns="http://www.w3.org/2000/svg">
<g clip-path="url(#clip0_17_19377)">
<path opacity="0.3" d="M7.00018 12.27V15.99L12.0002 18.72L17.0002 15.99V12.27L12.0002 15L7.00018 12.27ZM5.18018 9.00003L12.0002 12.72L18.8202 9.00003L12.0002 5.28003L5.18018 9.00003Z" fill="#323232"/>
<path d="M12 3L1 9L5 11.18V17.18L12 21L19 17.18V11.18L21 10.09V17H23V9L12 3ZM17 15.99L12 18.72L7 15.99V12.27L12 15L17 12.27V15.99ZM12 12.72L5.18 9L12 5.28L18.82 9L12 12.72Z" fill="#323232"/>
</g>
<defs>
<clipPath id="clip0_17_19377">
<rect width="24" height="24" fill="white"/>
</clipPath>
</defs>
</svg>
